<?xml version="1.0" encoding="utf-8"?>
<!-- Generator: Adobe Illustrator 19.2.0, SVG Export Plug-In . SVG Version: 6.00 Build 0)  -->
<svg version="1.1" id="レイヤー_1" xmlns="http://www.w3.org/2000/svg" xmlns:xlink="http://www.w3.org/1999/xlink" x="0px"
	 y="0px" width="600px" height="600px" viewBox="0 0 600 600" enable-background="new 0 0 600 600" xml:space="preserve">
<path d="M383.4,216.7c0-23-8.1-42.6-24.4-58.9s-35.9-24.4-58.9-24.4s-42.6,8.1-58.9,24.4s-24.4,35.9-24.4,58.9s8.1,42.6,24.4,58.9
	S277,300,300,300s42.6-8.1,58.9-24.4C375.2,259.3,383.4,239.7,383.4,216.7z M466.7,216.7c0,23.7-3.6,43.1-10.8,58.3L337.4,527
	c-3.5,7.2-8.6,12.8-15.5,16.9c-6.8,4.1-14.2,6.2-22,6.2s-15.1-2-22-6.2c-6.8-4.1-11.9-9.8-15.1-16.9L144,275
	c-7.2-15.2-10.8-34.6-10.8-58.3c0-46,16.3-85.3,48.8-117.8S254,50,300,50s85.3,16.3,117.8,48.8S466.6,170.7,466.7,216.7L466.7,216.7
	z"/>
</svg>
